HIERARCHY
ROOT Hips
{
	OFFSET 0.00 0.00 0.00
	CHANNELS 6 Xposition Yposition Zposition Xrotation Yrotation Zrotation
	JOINT Spine
	{
		OFFSET 0.00000 7.17041 0.00000
		CHANNELS 3 Xrotation Yrotation Zrotation
		JOINT Head
		{
			OFFSET 0.00000 14.27615 0.00000
			CHANNELS 3 Xrotation Yrotation Zrotation
			End Site
			{
				OFFSET 0.00000 4.52755 0.00000
			}
		}
		JOINT LeftShoulder
		{
			OFFSET 0.00000 10.71824 0.00000
			CHANNELS 3 Xrotation Yrotation Zrotation
			JOINT LeftArm
			{
				OFFSET 7.05887 0.00000 0.00000
				CHANNELS 3 Xrotation Yrotation Zrotation
				JOINT LeftForeArm
				{
					OFFSET 10.95552 0.00000 0.00000
					CHANNELS 3 Yrotation Zrotation Xrotation
					JOINT LeftHand
					{
						OFFSET 8.19372 0.00000 0.00000
						CHANNELS 3 Xrotation Yrotation Zrotation
						JOINT LeftHandThumb1
						{
							OFFSET 0.00000 0.00000 0.00000
							CHANNELS 3 Xrotation Zrotation Yrotation
							End Site
							{
								OFFSET 0.00000 0.00000 3.93700
							}
						}
						End Site
						{
							OFFSET 3.93700 0.00000 0.00000
						}
					}
				}
			}
		}
		JOINT RightShoulder
		{
			OFFSET 0.00000 10.71824 0.00000
			CHANNELS 3 Xrotation Yrotation Zrotation
			JOINT RightArm
			{
				OFFSET -7.05887 0.00000 0.00000
				CHANNELS 3 Xrotation Yrotation Zrotation
				JOINT RightForeArm
				{
					OFFSET -10.95552 0.00000 0.00000
					CHANNELS 3 Yrotation Zrotation Xrotation
					JOINT RightHand
					{
						OFFSET -8.19372 0.00000 0.00000
						CHANNELS 3 Xrotation Yrotation Zrotation
						JOINT RightHandThumb1
						{
							OFFSET 0.00000 0.00000 0.00000
							CHANNELS 3 Xrotation Zrotation Yrotation
							End Site
							{
								OFFSET 0.00000 0.00000 3.93700
							}
						}
						End Site
						{
							OFFSET -3.93700 0.00000 0.00000
						}
					}
				}
			}
		}
	}
	JOINT LeftUpLeg
	{
		OFFSET 4.31835 0.00000 0.00000
		CHANNELS 3 Xrotation Yrotation Zrotation
		JOINT LeftLeg
		{
			OFFSET 0.00000 -17.32364 0.00000
			CHANNELS 3 Xrotation Yrotation Zrotation
			JOINT LeftFoot
			{
				OFFSET 0.00000 -16.27037 0.00000
				CHANNELS 3 Xrotation Yrotation Zrotation
				JOINT LeftToeBase
				{
					OFFSET 0.00000 -1.27412 4.75510
					CHANNELS 3 Xrotation Yrotation Zrotation
					End Site
					{
						OFFSET 0.00000 0.00000 2.95275
					}
				}
			}
		}
	}
	JOINT RightUpLeg
	{
		OFFSET -4.31835 0.00000 0.00000
		CHANNELS 3 Xrotation Yrotation Zrotation
		JOINT RightLeg
		{
			OFFSET 0.00000 -17.32364 0.00000
			CHANNELS 3 Xrotation Yrotation Zrotation
			JOINT RightFoot
			{
				OFFSET 0.00000 -16.27037 0.00000
				CHANNELS 3 Xrotation Yrotation Zrotation
				JOINT RightToeBase
				{
					OFFSET 0.00000 -1.27412 4.75510
					CHANNELS 3 Xrotation Yrotation Zrotation
					End Site
					{
						OFFSET 0.00000 0.00000 2.95275
					}
				}
			}
		}
	}
}
MOTION
Frames: 9
Frame Time: 0.008333
 -5.9379 35.1934 -9.7997 0.7343 -1.7504 -6.8297 -5.9381 1.2941 6.1747 10.9600 -15.3721 -4.7638 17.9587 10.3403 -13.0315 -14.3792 -18.1018 -72.4597 -11.5135 -0.0000 10.6062 -0.2944 -1.9676 -8.5108 33.1476 -0.0000 26.2537 -14.8546 -6.5430 -10.2665 -74.6066 -43.6184 -4.5731 65.9930 0.0000 -45.5163 3.4510 13.3219 -14.6659 32.8623 0.0000 -24.3270 6.9553 12.4826 6.5009 -9.3817 -0.0000 -0.0000 -15.8815 27.7970 9.7503 23.8268 -0.0000 -0.0000 7.6313 -9.5875 5.2477 -5.1702 0.0000 0.0000 -3.5200 -25.0172 -0.6688 12.7593 0.0000 -0.0000
 -5.9384 35.1941 -9.8022 0.7342 -1.7636 -6.8194 -5.8879 1.2227 6.1501 10.8764 -15.2815 -4.6894 17.9898 10.3507 -13.0150 -14.3997 -17.9652 -72.4900 -11.5283 -0.0000 10.5003 -0.3017 -1.9858 -8.6407 33.1476 -0.0000 26.2537 -14.7388 -6.5239 -10.3475 -73.3605 -43.3515 -4.0644 65.0315 0.0000 -43.8939 3.3384 13.1956 -14.3343 32.8623 0.0000 -24.3270 6.9447 12.5296 6.4874 -9.3716 -0.0000 -0.0000 -15.8685 27.7717 9.7201 23.8318 0.0000 -0.0000 7.6236 -9.5483 5.2340 -5.1747 0.0000 0.0000 -3.5196 -25.0367 -0.6703 12.7531 0.0000 0.0000
 -5.9399 35.1945 -9.8036 0.7208 -1.7666 -6.8141 -5.8115 1.1261 6.1279 10.7749 -15.1752 -4.6146 18.0231 10.3752 -13.0026 -14.4196 -17.8803 -72.5081 -11.5567 -0.0000 10.4894 -0.3072 -2.0807 -8.3992 33.1476 -0.0000 26.2537 -14.6405 -6.5193 -10.4143 -72.1914 -42.9829 -3.6017 63.9485 0.0000 -42.5382 2.9745 12.2716 -13.7377 32.8623 0.0000 -24.3270 6.9552 12.5635 6.4815 -9.3805 -0.0000 -0.0000 -15.8384 27.7543 9.6965 23.7903 0.0000 -0.0000 7.6334 -9.5174 5.2324 -5.1846 -0.0000 0.0000 -3.5177 -25.0858 -0.6707 12.7619 -0.0000 -0.0000
 -5.9394 35.1950 -9.8061 0.7129 -1.7587 -6.7952 -5.7358 1.0022 6.0953 10.6751 -15.0528 -4.5470 18.0842 10.3955 -13.0054 -14.4505 -17.8280 -72.5212 -11.5798 -0.0000 10.4934 -0.2989 -2.0319 -8.3690 33.1476 -0.0000 26.2537 -14.4986 -6.4659 -10.4833 -71.0059 -42.6841 -3.1090 62.8167 0.0000 -41.2905 2.8383 12.4599 -12.9413 32.8623 0.0000 -24.3270 6.9554 12.5712 6.4601 -9.3712 -0.0000 0.0000 -15.8299 27.7582 9.6638 23.8068 -0.0000 0.0000 7.6376 -9.5183 5.2110 -5.1851 0.0000 0.0000 -3.5304 -25.0690 -0.7184 12.7894 -0.0000 0.0000
 -5.9400 35.1956 -9.8089 0.7040 -1.7539 -6.7894 -5.6633 0.8704 6.0807 10.5871 -14.9309 -4.4974 18.1399 10.4226 -13.0161 -14.4834 -17.7706 -72.5318 -11.5852 -0.0000 10.5043 -0.2923 -1.9782 -8.4079 33.1476 -0.0000 26.2537 -14.3174 -6.4138 -10.5727 -69.7849 -42.4095 -2.5714 61.6769 0.0000 -40.3313 2.7363 12.3942 -12.5532 32.8623 0.0000 -24.3270 6.9565 12.5819 6.4542 -9.3670 0.0000 0.0000 -15.8180 27.7503 9.6518 23.8248 -0.0000 0.0000 7.6402 -9.4835 5.2033 -5.1881 0.0000 0.0000 -3.5266 -25.0914 -0.7114 12.7808 0.0000 -0.0000
 -5.9400 35.1962 -9.8106 0.6841 -1.7439 -6.7826 -5.5743 0.7273 6.0654 10.4945 -14.8138 -4.4459 18.1887 10.4543 -13.0275 -14.4950 -17.7528 -72.5370 -11.5985 -0.0000 10.4876 -0.2858 -1.9388 -8.3867 33.1476 -0.0000 26.2537 -14.0470 -6.3927 -10.6207 -68.6445 -42.0562 -2.0318 60.4359 0.0000 -39.5776 2.6042 12.3181 -12.0349 32.8623 0.0000 -24.3270 6.9750 12.5769 6.4476 -9.3695 -0.0000 -0.0000 -15.8000 27.7521 9.6332 23.8119 -0.0000 0.0000 7.6584 -9.4537 5.1964 -5.1989 0.0000 -0.0000 -3.5130 -25.1511 -0.6909 12.7386 -0.0000 -0.0000
 -5.9403 35.1968 -9.8097 0.6428 -1.7388 -6.7673 -5.4568 0.5965 6.0304 10.3865 -14.7005 -4.3774 18.2401 10.4986 -13.0387 -14.5046 -17.8080 -72.5319 -11.5996 -0.0000 10.4936 -0.2829 -1.9282 -8.3469 33.1476 -0.0000 26.2537 -13.9187 -6.3480 -10.6882 -67.3174 -41.6898 -1.4926 59.1333 0.0000 -39.1409 2.5154 12.1844 -11.7580 32.8623 0.0000 -24.3270 7.0262 12.5696 6.4299 -9.3761 -0.0000 -0.0000 -15.7756 27.7752 9.5856 23.7616 -0.0000 0.0000 7.7014 -9.4361 5.1788 -5.2053 0.0000 -0.0000 -3.5232 -25.1569 -0.7017 12.7750 -0.0000 -0.0000
 -5.9392 35.1979 -9.8085 0.5963 -1.7453 -6.7506 -5.3369 0.4921 5.9964 10.2796 -14.6042 -4.3069 18.2570 10.5284 -13.0455 -14.4873 -17.8256 -72.5287 -11.6003 -0.0000 10.5665 -0.2769 -1.8787 -8.3856 33.1476 -0.0000 26.2537 -13.8744 -6.3476 -10.7744 -65.9796 -41.3658 -0.9063 57.9263 0.0000 -38.6496 2.4109 11.9040 -11.5365 32.8623 0.0000 -24.3270 7.0824 12.5409 6.4108 -9.3685 -0.0000 0.0000 -15.7715 27.8162 9.5552 23.7566 0.0000 -0.0000 7.7423 -9.4185 5.1569 -5.2063 -0.0000 0.0000 -3.5199 -25.1764 -0.6884 12.7741 0.0000 0.0000
 -5.9384 35.1989 -9.8097 0.5632 -1.7290 -6.7348 -5.2271 0.3549 5.9777 10.1775 -14.5163 -4.2838 18.3127 10.5401 -13.0791 -14.4931 -17.8824 -72.5026 -11.5860 -0.0000 10.5381 -0.2799 -1.9117 -8.3301 33.1476 -0.0000 26.2537 -13.7160 -6.2958 -10.8606 -64.8540 -41.0613 -0.4551 56.6420 0.0000 -38.1913 2.3067 11.6274 -11.3022 32.8623 0.0000 -24.3270 7.1200 12.5297 6.3926 -9.3748 -0.0000 0.0000 -15.7369 27.8234 9.5201 23.7247 0.0000 0.0000 7.7586 -9.5233 5.1474 -5.1646 -0.0000 -0.0000 -3.5501 -25.0988 -0.7355 12.7796 0.0000 -0.0000
